<svg width="32" height="20" viewBox="0 0 32 20" fill="none" xmlns="http://www.w3.org/2000/svg">
<rect y="13.3537" width="32" height="6" fill="#00CC00"/>
<rect y="0.353699" width="32" height="6" fill="#3399FF"/>
<mask id="path-3-inside-1_162_5939" fill="white">
<path d="M0 6.3537H32V13.3537H0V6.3537Z"/>
</mask>
<path d="M0 6.3537H32V13.3537H0V6.3537Z" fill="white"/>
<path d="M0 6.6537H32V6.0537H0V6.6537ZM32 13.0537H0V13.6537H32V13.0537Z" fill="#FF0000" mask="url(#path-3-inside-1_162_5939)"/>
<path d="M3.91805 5.1898C4.97736 5.1898 5.8361 4.33106 5.8361 3.27175C5.8361 2.21244 4.97736 1.3537 3.91805 1.3537C2.85874 1.3537 2 2.21244 2 3.27175C2 4.33106 2.85874 5.1898 3.91805 5.1898Z" fill="white"/>
<path d="M4.55745 5.1898C5.61676 5.1898 6.4755 4.33106 6.4755 3.27175C6.4755 2.21244 5.61676 1.3537 4.55745 1.3537C3.49814 1.3537 2.6394 2.21244 2.6394 3.27175C2.6394 4.33106 3.49814 5.1898 4.55745 5.1898Z" fill="#3399FF"/>
<path d="M8.13686 4.42325L8.01538 4.78768L8.20079 4.85161" fill="white"/>
<path d="M8.13682 4.42325L8.2583 4.78768L8.07289 4.85161" fill="white"/>
<path d="M8.50165 4.68833L8.11752 4.68541L8.11401 4.88151" fill="white"/>
<path d="M8.50201 4.68829L8.19296 4.91643L8.07486 4.75985" fill="white"/>
<path d="M7.77191 4.68829L8.08097 4.91643L8.19907 4.75985" fill="white"/>
<path d="M7.77203 4.6883L8.15616 4.68538L8.15967 4.88148" fill="white"/>
<path d="M8.36242 5.11719L8.24649 4.75096L8.05891 4.80822" fill="white"/>
<path d="M8.36244 5.1172L8.04995 4.89377L8.16237 4.73306" fill="white"/>
<path d="M7.91124 5.1172L8.22373 4.89377L8.11131 4.73306" fill="white"/>
<path d="M7.91126 5.11721L8.02719 4.75098L8.21478 4.80823" fill="white"/>
<path d="M8.13686 2.88879L8.01538 3.25322L8.20079 3.31716" fill="white"/>
<path d="M8.13682 2.88879L8.2583 3.25322L8.07289 3.31716" fill="white"/>
<path d="M8.50165 3.15389L8.11752 3.15098L8.11401 3.34707" fill="white"/>
<path d="M8.50201 3.15385L8.19296 3.38199L8.07486 3.22541" fill="white"/>
<path d="M7.77191 3.15386L8.08097 3.38201L8.19907 3.22543" fill="white"/>
<path d="M7.77203 3.15388L8.15616 3.15096L8.15967 3.34705" fill="white"/>
<path d="M8.36242 3.58275L8.24649 3.21652L8.05891 3.27378" fill="white"/>
<path d="M8.36244 3.58276L8.04995 3.35933L8.16237 3.19862" fill="white"/>
<path d="M7.91149 3.58276L8.22397 3.35933L8.11155 3.19862" fill="white"/>
<path d="M7.91126 3.58274L8.02719 3.21651L8.21478 3.27377" fill="white"/>
<path d="M8.13686 1.35435L8.01538 1.71878L8.20079 1.78272" fill="white"/>
<path d="M8.13682 1.35435L8.2583 1.71878L8.07289 1.78272" fill="white"/>
<path d="M8.50165 1.61944L8.11752 1.61652L8.11401 1.81261" fill="white"/>
<path d="M8.50201 1.61942L8.19296 1.84757L8.07486 1.69099" fill="white"/>
<path d="M7.77191 1.61942L8.08097 1.84757L8.19907 1.69099" fill="white"/>
<path d="M7.77203 1.61942L8.15616 1.61651L8.15967 1.8126" fill="white"/>
<path d="M8.36242 2.04833L8.24649 1.6821L8.05891 1.73936" fill="white"/>
<path d="M8.36244 2.04832L8.04995 1.82489L8.16237 1.66418" fill="white"/>
<path d="M7.91124 2.04832L8.22373 1.82489L8.11131 1.66418" fill="white"/>
<path d="M7.91126 2.04833L8.02719 1.6821L8.21478 1.73936" fill="white"/>
<path d="M9.67153 4.42325L9.55005 4.78768L9.73546 4.85161" fill="white"/>
<path d="M9.67174 4.42325L9.79321 4.78768L9.6078 4.85161" fill="white"/>
<path d="M10.0363 4.6883L9.65219 4.68538L9.64868 4.88148" fill="white"/>
<path d="M10.0362 4.68829L9.72714 4.91643L9.60904 4.75985" fill="white"/>
<path d="M9.30658 4.68829L9.61564 4.91643L9.73374 4.75985" fill="white"/>
<path d="M9.30694 4.6883L9.69108 4.68538L9.69459 4.88148" fill="white"/>
<path d="M9.89684 5.11719L9.78091 4.75096L9.59333 4.80822" fill="white"/>
<path d="M9.89686 5.1172L9.58438 4.89377L9.6968 4.73306" fill="white"/>
<path d="M9.44591 5.1172L9.7584 4.89377L9.64597 4.73306" fill="white"/>
<path d="M9.44593 5.11721L9.56186 4.75098L9.74944 4.80823" fill="white"/>
<path d="M9.67153 2.88879L9.55005 3.25322L9.73546 3.31716" fill="white"/>
<path d="M9.67174 2.88879L9.79321 3.25322L9.6078 3.31716" fill="white"/>
<path d="M10.0361 3.15394L9.65194 3.15102L9.64843 3.34711" fill="white"/>
<path d="M10.0367 3.15386L9.72763 3.38201L9.60952 3.22543" fill="white"/>
<path d="M9.30658 3.15392L9.61564 3.38207L9.73374 3.22549" fill="white"/>
<path d="M9.30646 3.15388L9.69059 3.15096L9.6941 3.34705" fill="white"/>
<path d="M9.89684 3.58275L9.78091 3.21652L9.59333 3.27378" fill="white"/>
<path d="M9.89686 3.58276L9.58438 3.35933L9.6968 3.19862" fill="white"/>
<path d="M9.44591 3.58276L9.7584 3.35933L9.64597 3.19862" fill="white"/>
<path d="M9.44593 3.58274L9.56186 3.21651L9.74944 3.27377" fill="white"/>
<path d="M9.67153 1.35435L9.55005 1.71878L9.73546 1.78272" fill="white"/>
<path d="M9.67174 1.35435L9.79321 1.71878L9.6078 1.78272" fill="white"/>
<path d="M10.0361 1.61947L9.65194 1.61655L9.64843 1.81265" fill="white"/>
<path d="M10.0367 1.61942L9.72763 1.84757L9.60952 1.69099" fill="white"/>
<path d="M9.30658 1.6195L9.61564 1.84765L9.73374 1.69107" fill="white"/>
<path d="M9.30646 1.61942L9.69059 1.61651L9.6941 1.8126" fill="white"/>
<path d="M9.89684 2.04833L9.78091 1.6821L9.59333 1.73936" fill="white"/>
<path d="M9.89686 2.04832L9.58438 1.82489L9.6968 1.66418" fill="white"/>
<path d="M9.44591 2.04832L9.7584 1.82489L9.64597 1.66418" fill="white"/>
<path d="M9.44593 2.04833L9.56186 1.6821L9.74944 1.73936" fill="white"/>
<path d="M11.2059 4.42325L11.0845 4.78768L11.2699 4.85161" fill="white"/>
<path d="M11.2059 4.42325L11.3274 4.78768L11.142 4.85161" fill="white"/>
<path d="M11.5707 4.6883L11.1866 4.68538L11.1831 4.88148" fill="white"/>
<path d="M11.5709 4.68832L11.2618 4.91646L11.1437 4.75988" fill="white"/>
<path d="M10.841 4.68829L11.1501 4.91643L11.2682 4.75985" fill="white"/>
<path d="M10.8411 4.6883L11.2253 4.68538L11.2288 4.88148" fill="white"/>
<path d="M11.4313 5.11719L11.3153 4.75096L11.1278 4.80822" fill="white"/>
<path d="M11.4315 5.1172L11.119 4.89377L11.2315 4.73306" fill="white"/>
<path d="M10.9803 5.1172L11.2928 4.89377L11.1804 4.73306" fill="white"/>
<path d="M10.9804 5.11721L11.0963 4.75098L11.2839 4.80823" fill="white"/>
<path d="M11.2059 2.88879L11.0845 3.25322L11.2699 3.31716" fill="white"/>
<path d="M11.2059 2.88879L11.3274 3.25322L11.142 3.31716" fill="white"/>
<path d="M11.5707 3.15388L11.1866 3.15096L11.1831 3.34705" fill="white"/>
<path d="M11.5709 3.15386L11.2618 3.38201L11.1437 3.22543" fill="white"/>
<path d="M10.841 3.15386L11.1501 3.38201L11.2682 3.22543" fill="white"/>
<path d="M10.8411 3.15386L11.2253 3.15094L11.2288 3.34704" fill="white"/>
<path d="M11.4313 3.58275L11.3153 3.21652L11.1278 3.27378" fill="white"/>
<path d="M11.4315 3.58276L11.119 3.35933L11.2315 3.19862" fill="white"/>
<path d="M10.9803 3.58276L11.2928 3.35933L11.1804 3.19862" fill="white"/>
<path d="M10.9804 3.58274L11.0963 3.21651L11.2839 3.27377" fill="white"/>
<path d="M11.2059 1.35435L11.0845 1.71878L11.2699 1.78272" fill="white"/>
<path d="M11.2059 1.35435L11.3274 1.71878L11.142 1.78272" fill="white"/>
<path d="M11.5707 1.61942L11.1866 1.61651L11.1831 1.8126" fill="white"/>
<path d="M11.5709 1.61942L11.2618 1.84757L11.1437 1.69099" fill="white"/>
<path d="M10.841 1.61942L11.1501 1.84757L11.2682 1.69099" fill="white"/>
<path d="M10.8411 1.61942L11.2253 1.61651L11.2288 1.8126" fill="white"/>
<path d="M11.4313 2.04833L11.3153 1.6821L11.1278 1.73936" fill="white"/>
<path d="M11.4313 2.04832L11.1188 1.82489L11.2312 1.66418" fill="white"/>
<path d="M10.9803 2.04832L11.2928 1.82489L11.1804 1.66418" fill="white"/>
<path d="M10.9804 2.04833L11.0963 1.6821L11.2839 1.73936" fill="white"/>
<path d="M5.06825 4.42325L4.94678 4.78768L5.13219 4.85161" fill="white"/>
<path d="M5.06822 4.42325L5.1897 4.78768L5.00429 4.85161" fill="white"/>
<path d="M5.43305 4.6883L5.04891 4.68538L5.0454 4.88148" fill="white"/>
<path d="M5.43292 4.68829L5.12387 4.91643L5.00577 4.75985" fill="white"/>
<path d="M4.70331 4.68829L5.01236 4.91643L5.13047 4.75985" fill="white"/>
<path d="M4.70343 4.6883L5.08756 4.68538L5.09107 4.88148" fill="white"/>
<path d="M5.29333 5.11719L5.1774 4.75096L4.98981 4.80822" fill="white"/>
<path d="M5.29359 5.1172L4.98111 4.89377L5.09353 4.73306" fill="white"/>
<path d="M4.84264 5.1172L5.15512 4.89377L5.0427 4.73306" fill="white"/>
<path d="M4.84242 5.11721L4.95835 4.75098L5.14593 4.80823" fill="white"/>
<path d="M6.60268 4.42325L6.4812 4.78768L6.66661 4.85161" fill="white"/>
<path d="M6.60264 4.42325L6.72412 4.78768L6.53871 4.85161" fill="white"/>
<path d="M6.96747 4.6883L6.58334 4.68538L6.57983 4.88148" fill="white"/>
<path d="M6.96734 4.68832L6.65829 4.91646L6.54019 4.75988" fill="white"/>
<path d="M6.23773 4.68829L6.54679 4.91643L6.66489 4.75985" fill="white"/>
<path d="M6.23761 4.6883L6.62174 4.68538L6.62525 4.88148" fill="white"/>
<path d="M6.82799 5.11719L6.71206 4.75096L6.52448 4.80822" fill="white"/>
<path d="M6.82801 5.1172L6.51553 4.89377L6.62795 4.73306" fill="white"/>
<path d="M6.37707 5.1172L6.68955 4.89377L6.57713 4.73306" fill="white"/>
<path d="M6.37684 5.11721L6.49277 4.75098L6.68035 4.80823" fill="white"/>
<path d="M6.60268 2.88879L6.4812 3.25322L6.66661 3.31716" fill="white"/>
<path d="M6.60264 2.88879L6.72412 3.25322L6.53871 3.31716" fill="white"/>
<path d="M6.96747 3.15388L6.58334 3.15096L6.57983 3.34705" fill="white"/>
<path d="M6.96734 3.15386L6.65829 3.38201L6.54019 3.22543" fill="white"/>
<path d="M6.23773 3.15386L6.54679 3.38201L6.66489 3.22543" fill="white"/>
<path d="M6.23761 3.15386L6.62174 3.15094L6.62525 3.34704" fill="white"/>
<path d="M6.82799 3.58275L6.71206 3.21652L6.52448 3.27378" fill="white"/>
<path d="M6.82801 3.58276L6.51553 3.35933L6.62795 3.19862" fill="white"/>
<path d="M6.37707 3.58276L6.68955 3.35933L6.57713 3.19862" fill="white"/>
<path d="M6.37684 3.58274L6.49277 3.21651L6.68035 3.27377" fill="white"/>
</svg>
